<svg xmlns="http://www.w3.org/2000/svg">
  <symbol id="pin-outline" viewBox="0 0 20 20">
    <path fill="none" stroke="currentColor" stroke-width="1.4" stroke-linejoin="round" d="M5 3.5h10a1 1 0 0 1 1 1v13.2a.5.5 0 0 1-.79.4L10 14.3l-5.21 3.8a.5.5 0 0 1-.79-.4V4.5a1 1 0 0 1 1-1Z"/>
  </symbol>
  <symbol id="pin-solid" viewBox="0 0 20 20">
    <path fill="currentColor" d="M5 3.5h10a1 1 0 0 1 1 1v13.2a.5.5 0 0 1-.79.4L10 14.3l-5.21 3.8a.5.5 0 0 1-.79-.4V4.5a1 1 0 0 1 1-1Z"/>
  </symbol>
  <symbol id="tab-feed-outline" viewBox="0 0 20 20">
    <path fill="none" stroke="currentColor" stroke-width="1.4" stroke-linecap="round" stroke-linejoin="round" d="M3.3 9.3 10 3.8l6.7 5.5M5.1 8.1v7.6c0 .55.45 1 1 1h7.8c.55 0 1-.45 1-1V8.1"/>
  </symbol>
  <symbol id="tab-feed-solid" viewBox="0 0 20 20">
    <path fill="currentColor" d="M10 3.4 3 9.1v7.4c0 .6.5 1.1 1.1 1.1h3.4v-5.1h5v5.1h3.4c.6 0 1.1-.5 1.1-1.1V9.1Z"/>
  </symbol>
  <symbol id="tab-journal-outline" viewBox="0 0 20 20">
    <path fill="none" stroke="currentColor" stroke-width="1.4" stroke-linecap="round" stroke-linejoin="round" d="M3.3 5.3c1.9-.85 3.9-.85 5.7 0v9.4c-1.8-.85-3.8-.85-5.7 0Zm13.4 0c-1.9-.85-3.9-.85-5.7 0v9.4c1.8-.85 3.8-.85 5.7 0Z"/>
  </symbol>
  <symbol id="tab-journal-solid" viewBox="0 0 20 20">
    <path fill="currentColor" d="M3.3 5.3c1.9-.85 3.9-.85 5.7 0v9.4c-1.8-.85-3.8-.85-5.7 0Zm13.4 0c-1.9-.85-3.9-.85-5.7 0v9.4c1.8-.85 3.8-.85 5.7 0Z"/>
  </symbol>
  <symbol id="tab-ledger-outline" viewBox="0 0 20 20">
    <path fill="none" stroke="currentColor" stroke-width="1.4" stroke-linecap="round" stroke-linejoin="round" d="M10 10a3 3 0 1 0 0-6 3 3 0 0 0 0 6Zm-6.2 7c0-3.1 2.8-5.2 6.2-5.2s6.2 2.1 6.2 5.2"/>
  </symbol>
  <symbol id="tab-ledger-solid" viewBox="0 0 20 20">
    <circle cx="10" cy="6.2" r="3" fill="currentColor"/>
    <path fill="currentColor" d="M3.8 17c0-3.1 2.8-5.2 6.2-5.2s6.2 2.1 6.2 5.2c0 .55-.45 1-1 1H4.8c-.55 0-1-.45-1-1Z"/>
  </symbol>
  <symbol id="icon-bell" viewBox="0 0 20 20">
    <path fill="none" stroke="currentColor" stroke-width="1.4" stroke-linecap="round" stroke-linejoin="round" d="M5.2 8.2a4.8 4.8 0 1 1 9.6 0v3.1l1.3 2.3H3.9l1.3-2.3Z"/>
    <path fill="none" stroke="currentColor" stroke-width="1.4" stroke-linecap="round" d="M8.3 15.8a1.7 1.7 0 0 0 3.4 0"/>
  </symbol>
  <symbol id="icon-gear" viewBox="0 0 20 20">
    <circle cx="10" cy="10" r="2.6" fill="none" stroke="currentColor" stroke-width="1.4"/>
    <path fill="none" stroke="currentColor" stroke-width="1.4" stroke-linecap="round" d="M10 3.6v1.6M10 14.8v1.6M16.4 10h-1.6M5.2 10H3.6M14.5 5.5l-1.1 1.1M6.6 13.4l-1.1 1.1M14.5 14.5l-1.1-1.1M6.6 6.6 5.5 5.5"/>
  </symbol>
</svg>
